# xmcd
#
# Track frame offsets:
#	150
#	5057
#	38540
#	56565
#	77607
#	85750
#	103345
#	112390
#	124825
#	129125
#	156280
#	180350
#	194615
#	195830
#	218832
#	240887
#	270370
#	283750
#
# Disc length: 3809 seconds
#
# Revision: 1
# Processed by: cddbd v1.5.1PL0 Copyright (c) Steve Scherf et al.
# Submitted via: CDex 1.50Beta5
#
DISCID=ee0edf12
DTITLE=GAIA ALL - GAIA 2
DYEAR=1900
DGENRE=Soundtrack
TTITLE0=GAIA ALL/プロローグ
TTITLE1=石原真治/A DAWN OF FOREST
TTITLE2=Pushkar/マナマレイ
TTITLE3=Kamal/meditation
TTITLE4=GAIA ALL/イルカの海
TTITLE5=GAIA ALL/浜辺の歌
TTITLE6=GAIA ALL/女王の変奏曲
TTITLE7=GAIA ALL/ボニーボーイ
TTITLE8=GAIA ALL/宇宙への信号
TTITLE9=GAIA ALL/家路
TTITLE10=GAIA ALL/チェスターの修道女の歌
TTITLE11=石原真治/GAI2-12
TTITLE12=GAIA ALL/静寂のハーモニー
TTITLE13=Kamal/ドリームスケープ
TTITLE14=Anugama/ギュト寺院の僧による声明
TTITLE15=GAIA ALL/よみがえる種子
TTITLE16=GAIA ALL/アヴェマリア・メインテーマ
TTITLE17=GAIA ALL/森のイスキアの鐘
EXTD=
EXTT0=
EXTT1=
EXTT2=
EXTT3=
EXTT4=
EXTT5=
EXTT6=
EXTT7=
EXTT8=
EXTT9=
EXTT10=
EXTT11=
EXTT12=
EXTT13=
EXTT14=
EXTT15=
EXTT16=
EXTT17=
PLAYORDER=
